# xmcd
# 
# Track frame offsets:
#     150
#     20215
#     45610
#     76182
#     100300
# 
# Disc length: 1786
# 
# Revision: 2
# Processed by: cddbd v1.5.2PL0 Copyright (c) Steve Scherf et al.
# Submitted via: fre:ac v1.0.31
# 
DISCID=3606f805
DTITLE=大自然 - 夜的節目單
DYEAR=2001
DGENRE=Noise
TTITLE0=向晚
TTITLE1=鄉間晚風
TTITLE2=星夜
TTITLE3=銀色山崗
TTITLE4=夢
EXTD=YEAR: 2001
EXTT0=
EXTT1=
EXTT2=
EXTT3=
EXTT4=
PLAYORDER=
